{
    "accessors" : [
        {
            "bufferView" : 0, 
            "componentType" : 5121, 
            "count" : 84, 
            "max" : [
                47
            ], 
            "min" : [
                0
            ], 
            "type" : "SCALAR"
        }, 
        {
            "bufferView" : 1, 
            "componentType" : 5126, 
            "count" : 48, 
            "max" : [
                5.262735366821289, 
                0.46158891916275024, 
                5.262735366821289
            ], 
            "min" : [
                -5.262735366821289, 
                -0.16556121408939362, 
                -5.262735366821289
            ], 
            "type" : "VEC3"
        }, 
        {
            "bufferView" : 2, 
            "componentType" : 5126, 
            "count" : 48, 
            "max" : [
                1.0, 
                1.0, 
                1.0
            ], 
            "min" : [
                -1.0, 
                -1.0, 
                -1.0
            ], 
            "type" : "VEC3"
        }, 
        {
            "bufferView" : 3, 
            "componentType" : 5121, 
            "count" : 36, 
            "max" : [
                23
            ], 
            "min" : [
                0
            ], 
            "type" : "SCALAR"
        }, 
        {
            "bufferView" : 4, 
            "componentType" : 5126, 
            "count" : 24, 
            "max" : [
                1.0, 
                2.0, 
                1.0
            ], 
            "min" : [
                -1.0, 
                0.0, 
                -1.0
            ], 
            "type" : "VEC3"
        }, 
        {
            "bufferView" : 5, 
            "componentType" : 5126, 
            "count" : 24, 
            "max" : [
                1.0, 
                1.0, 
                1.0
            ], 
            "min" : [
                -1.0, 
                -1.0, 
                -1.0
            ], 
            "type" : "VEC3"
        }, 
        {
            "bufferView" : 6, 
            "componentType" : 5126, 
            "count" : 24, 
            "max" : [
                1.0, 
                2.683800630620681e-07, 
                1.0, 
                1.0
            ], 
            "min" : [
                -8.945999496745571e-08, 
                -8.945999496745571e-08, 
                -1.0, 
                1.0
            ], 
            "type" : "VEC4"
        }, 
        {
            "bufferView" : 7, 
            "componentType" : 5126, 
            "count" : 24, 
            "max" : [
                0.999555230140686, 
                0.999851771601243
            ], 
            "min" : [
                0.0001482283987570554, 
                0.0001481175422668457
            ], 
            "type" : "VEC2"
        }, 
        {
            "bufferView" : 8, 
            "componentType" : 5121, 
            "count" : 36, 
            "max" : [
                23
            ], 
            "min" : [
                0
            ], 
            "type" : "SCALAR"
        }, 
        {
            "bufferView" : 9, 
            "componentType" : 5126, 
            "count" : 24, 
            "max" : [
                0.05779975652694702, 
                2.2437984943389893, 
                -0.14220024645328522
            ], 
            "min" : [
                -0.05779975652694702, 
                2.1281988620758057, 
                -1.0577998161315918
            ], 
            "type" : "VEC3"
        }, 
        {
            "bufferView" : 10, 
            "componentType" : 5126, 
            "count" : 24, 
            "max" : [
                1.0, 
                0.9999999403953552, 
                1.0
            ], 
            "min" : [
                -1.0, 
                -0.9999999403953552, 
                -1.0
            ], 
            "type" : "VEC3"
        }, 
        {
            "bufferView" : 11, 
            "componentType" : 5126, 
            "count" : 24, 
            "max" : [
                1.0, 
                0.0, 
                -0.0, 
                1.0
            ], 
            "min" : [
                1.0, 
                0.0, 
                -0.0, 
                1.0
            ], 
            "type" : "VEC4"
        }, 
        {
            "bufferView" : 12, 
            "componentType" : 5126, 
            "count" : 24, 
            "max" : [
                0.0, 
                1.0
            ], 
            "min" : [
                0.0, 
                1.0
            ], 
            "type" : "VEC2"
        }, 
        {
            "bufferView" : 13, 
            "componentType" : 5121, 
            "count" : 36, 
            "max" : [
                23
            ], 
            "min" : [
                0
            ], 
            "type" : "SCALAR"
        }, 
        {
            "bufferView" : 14, 
            "componentType" : 5126, 
            "count" : 24, 
            "max" : [
                1.0577998161315918, 
                2.24379825592041, 
                0.0577998161315918
            ], 
            "min" : [
                0.14220024645328522, 
                2.1281986236572266, 
                -0.057799749076366425
            ], 
            "type" : "VEC3"
        }, 
        {
            "bufferView" : 15, 
            "componentType" : 5126, 
            "count" : 24, 
            "max" : [
                1.0, 
                1.0, 
                1.0
            ], 
            "min" : [
                -1.0, 
                -1.0, 
                -1.0
            ], 
            "type" : "VEC3"
        }, 
        {
            "bufferView" : 16, 
            "componentType" : 5126, 
            "count" : 24, 
            "max" : [
                1.0, 
                0.0, 
                -0.0, 
                1.0
            ], 
            "min" : [
                1.0, 
                0.0, 
                -0.0, 
                1.0
            ], 
            "type" : "VEC4"
        }, 
        {
            "bufferView" : 17, 
            "componentType" : 5126, 
            "count" : 24, 
            "max" : [
                0.0, 
                1.0
            ], 
            "min" : [
                0.0, 
                1.0
            ], 
            "type" : "VEC2"
        }, 
        {
            "bufferView" : 18, 
            "componentType" : 5121, 
            "count" : 36, 
            "max" : [
                23
            ], 
            "min" : [
                0
            ], 
            "type" : "SCALAR"
        }, 
        {
            "bufferView" : 19, 
            "componentType" : 5126, 
            "count" : 24, 
            "max" : [
                0.05779975280165672, 
                3.243992805480957, 
                0.05760551989078522
            ], 
            "min" : [
                -0.05779975280165672, 
                2.3283932209014893, 
                -0.05799411982297897
            ], 
            "type" : "VEC3"
        }, 
        {
            "bufferView" : 20, 
            "componentType" : 5126, 
            "count" : 24, 
            "max" : [
                1.0, 
                1.0, 
                1.0
            ], 
            "min" : [
                -1.0, 
                -1.0, 
                -1.0
            ], 
            "type" : "VEC3"
        }, 
        {
            "bufferView" : 21, 
            "componentType" : 5126, 
            "count" : 24, 
            "max" : [
                1.0, 
                0.0, 
                -0.0, 
                1.0
            ], 
            "min" : [
                1.0, 
                0.0, 
                -0.0, 
                1.0
            ], 
            "type" : "VEC4"
        }, 
        {
            "bufferView" : 22, 
            "componentType" : 5126, 
            "count" : 24, 
            "max" : [
                0.0, 
                1.0
            ], 
            "min" : [
                0.0, 
                1.0
            ], 
            "type" : "VEC2"
        }, 
        {
            "bufferView" : 23, 
            "componentType" : 5121, 
            "count" : 132, 
            "max" : [
                71
            ], 
            "min" : [
                0
            ], 
            "type" : "SCALAR"
        }, 
        {
            "bufferView" : 24, 
            "componentType" : 5126, 
            "count" : 72, 
            "max" : [
                0.2102949619293213, 
                2.0, 
                0.2102949619293213
            ], 
            "min" : [
                -0.2102949619293213, 
                0.0, 
                -0.2102949619293213
            ], 
            "type" : "VEC3"
        }, 
        {
            "bufferView" : 25, 
            "componentType" : 5126, 
            "count" : 72, 
            "max" : [
                1.0, 
                1.0, 
                1.0
            ], 
            "min" : [
                -1.0, 
                -1.0, 
                -1.0
            ], 
            "type" : "VEC3"
        }, 
        {
            "bufferView" : 26, 
            "componentType" : 5126, 
            "count" : 72, 
            "max" : [
                1.0, 
                1.0, 
                1.0, 
                1.0
            ], 
            "min" : [
                1.0, 
                1.0, 
                1.0, 
                1.0
            ], 
            "type" : "VEC4"
        }, 
        {
            "bufferView" : 27, 
            "componentType" : 5123, 
            "count" : 72, 
            "max" : [
                1, 
                1, 
                0, 
                0
            ], 
            "min" : [
                0, 
                0, 
                0, 
                0
            ], 
            "type" : "VEC4"
        }, 
        {
            "bufferView" : 28, 
            "componentType" : 5126, 
            "count" : 72, 
            "max" : [
                1.0, 
                0.9013105034828186, 
                0.0, 
                0.0
            ], 
            "min" : [
                0.0986894741654396, 
                0.0, 
                0.0, 
                0.0
            ], 
            "type" : "VEC4"
        }, 
        {
            "bufferView" : 29, 
            "componentType" : 5126, 
            "count" : 2, 
            "max" : [
                1.0, 
                0.0, 
                0.0, 
                0.0, 
                0.0, 
                1.0, 
                0.0, 
                0.0, 
                0.0, 
                0.0, 
                1.0, 
                0.0, 
                0.0, 
                0.0, 
                0.0, 
                1.0
            ], 
            "min" : [
                1.0, 
                0.0, 
                0.0, 
                0.0, 
                0.0, 
                1.0, 
                0.0, 
                0.0, 
                0.0, 
                0.0, 
                1.0, 
                0.0, 
                0.0, 
                -1.0, 
                0.0, 
                1.0
            ], 
            "type" : "MAT4"
        }, 
        {
            "bufferView" : 30, 
            "componentType" : 5126, 
            "count" : 100, 
            "max" : [
                3.166666666666667
            ], 
            "min" : [
                -0.9583333333333334
            ], 
            "type" : "SCALAR"
        }, 
        {
            "bufferView" : 31, 
            "componentType" : 5126, 
            "count" : 200, 
            "max" : [
                0.2805327773094177, 
                0.0, 
                0.0, 
                1.0
            ], 
            "min" : [
                -0.31485775113105774, 
                0.0, 
                0.0, 
                0.949138879776001
            ], 
            "type" : "VEC4"
        }
    ], 
    "animations" : [
        {
            "channels" : [
                {
                    "sampler" : 0, 
                    "target" : {
                        "node" : 8, 
                        "path" : "rotation"
                    }
                }
            ], 
            "samplers" : [
                {
                    "input" : 30, 
                    "interpolation" : "LINEAR", 
                    "output" : 31
                }
            ]
        }
    ], 
    "asset" : {
        "generator" : "Khronos Blender glTF 2.0 exporter", 
        "version" : "2.0"
    }, 
    "bufferViews" : [
        {
            "buffer" : 0, 
            "byteLength" : 84, 
            "byteOffset" : 0, 
            "target" : 34963
        }, 
        {
            "buffer" : 0, 
            "byteLength" : 576, 
            "byteOffset" : 84, 
            "target" : 34962
        }, 
        {
            "buffer" : 0, 
            "byteLength" : 576, 
            "byteOffset" : 660, 
            "target" : 34962
        }, 
        {
            "buffer" : 0, 
            "byteLength" : 36, 
            "byteOffset" : 1236, 
            "target" : 34963
        }, 
        {
            "buffer" : 0, 
            "byteLength" : 288, 
            "byteOffset" : 1272, 
            "target" : 34962
        }, 
        {
            "buffer" : 0, 
            "byteLength" : 288, 
            "byteOffset" : 1560, 
            "target" : 34962
        }, 
        {
            "buffer" : 0, 
            "byteLength" : 384, 
            "byteOffset" : 1848, 
            "target" : 34962
        }, 
        {
            "buffer" : 0, 
            "byteLength" : 192, 
            "byteOffset" : 2232, 
            "target" : 34962
        }, 
        {
            "buffer" : 0, 
            "byteLength" : 36, 
            "byteOffset" : 2424, 
            "target" : 34963
        }, 
        {
            "buffer" : 0, 
            "byteLength" : 288, 
            "byteOffset" : 2460, 
            "target" : 34962
        }, 
        {
            "buffer" : 0, 
            "byteLength" : 288, 
            "byteOffset" : 2748, 
            "target" : 34962
        }, 
        {
            "buffer" : 0, 
            "byteLength" : 384, 
            "byteOffset" : 3036, 
            "target" : 34962
        }, 
        {
            "buffer" : 0, 
            "byteLength" : 192, 
            "byteOffset" : 3420, 
            "target" : 34962
        }, 
        {
            "buffer" : 0, 
            "byteLength" : 36, 
            "byteOffset" : 3612, 
            "target" : 34963
        }, 
        {
            "buffer" : 0, 
            "byteLength" : 288, 
            "byteOffset" : 3648, 
            "target" : 34962
        }, 
        {
            "buffer" : 0, 
            "byteLength" : 288, 
            "byteOffset" : 3936, 
            "target" : 34962
        }, 
        {
            "buffer" : 0, 
            "byteLength" : 384, 
            "byteOffset" : 4224, 
            "target" : 34962
        }, 
        {
            "buffer" : 0, 
            "byteLength" : 192, 
            "byteOffset" : 4608, 
            "target" : 34962
        }, 
        {
            "buffer" : 0, 
            "byteLength" : 36, 
            "byteOffset" : 4800, 
            "target" : 34963
        }, 
        {
            "buffer" : 0, 
            "byteLength" : 288, 
            "byteOffset" : 4836, 
            "target" : 34962
        }, 
        {
            "buffer" : 0, 
            "byteLength" : 288, 
            "byteOffset" : 5124, 
            "target" : 34962
        }, 
        {
            "buffer" : 0, 
            "byteLength" : 384, 
            "byteOffset" : 5412, 
            "target" : 34962
        }, 
        {
            "buffer" : 0, 
            "byteLength" : 192, 
            "byteOffset" : 5796, 
            "target" : 34962
        }, 
        {
            "buffer" : 0, 
            "byteLength" : 132, 
            "byteOffset" : 5988, 
            "target" : 34963
        }, 
        {
            "buffer" : 0, 
            "byteLength" : 864, 
            "byteOffset" : 6120, 
            "target" : 34962
        }, 
        {
            "buffer" : 0, 
            "byteLength" : 864, 
            "byteOffset" : 6984, 
            "target" : 34962
        }, 
        {
            "buffer" : 0, 
            "byteLength" : 1152, 
            "byteOffset" : 7848, 
            "target" : 34962
        }, 
        {
            "buffer" : 0, 
            "byteLength" : 576, 
            "byteOffset" : 9000, 
            "target" : 34962
        }, 
        {
            "buffer" : 0, 
            "byteLength" : 1152, 
            "byteOffset" : 9576, 
            "target" : 34962
        }, 
        {
            "buffer" : 0, 
            "byteLength" : 128, 
            "byteOffset" : 10728
        }, 
        {
            "buffer" : 0, 
            "byteLength" : 400, 
            "byteOffset" : 10856
        }, 
        {
            "buffer" : 0, 
            "byteLength" : 3200, 
            "byteOffset" : 11256
        }
    ], 
    "buffers" : [
        {
            "byteLength" : 14456, 
            "uri" : "assets.bin"
        }
    ], 
    "cameras" : [
        {
            "name" : "Camera", 
            "perspective" : {
                "aspectRatio" : 1.7777777777777777, 
                "yfov" : 0.5033799372418416, 
                "zfar" : 100.0, 
                "znear" : 0.10000000149011612
            }, 
            "type" : "perspective"
        }
    ], 
    "images" : [
        {
            "uri" : "player_color_1024.png"
        }
    ], 
    "materials" : [
        {
            "name" : "FloorMaterial", 
            "pbrMetallicRoughness" : {
                "baseColorFactor" : [
                    1.0, 
                    0.6031574010848999, 
                    0.006042669527232647, 
                    1.0
                ]
            }
        }, 
        {
            "name" : "PlayerBase", 
            "pbrMetallicRoughness" : {
                "baseColorTexture" : {
                    "index" : 0
                }
            }
        }, 
        {
            "name" : "PlayerXPlus", 
            "pbrMetallicRoughness" : {
                "baseColorFactor" : [
                    1.0, 
                    0.006453229114413261, 
                    0.0, 
                    1.0
                ]
            }
        }, 
        {
            "name" : "PlayerYPlus", 
            "pbrMetallicRoughness" : {
                "baseColorFactor" : [
                    0.03089088201522827, 
                    1.0, 
                    0.0, 
                    1.0
                ]
            }
        }, 
        {
            "name" : "PlayerZPlus", 
            "pbrMetallicRoughness" : {
                "baseColorFactor" : [
                    0.0, 
                    0.018057778477668762, 
                    1.0, 
                    1.0
                ]
            }
        }
    ], 
    "meshes" : [
        {
            "name" : "FloorMesh", 
            "primitives" : [
                {
                    "attributes" : {
                        "NORMAL" : 2, 
                        "POSITION" : 1
                    }, 
                    "indices" : 0, 
                    "material" : 0
                }
            ]
        }, 
        {
            "name" : "PlayerMesh", 
            "primitives" : [
                {
                    "attributes" : {
                        "NORMAL" : 5, 
                        "POSITION" : 4, 
                        "TANGENT" : 6, 
                        "TEXCOORD_0" : 7
                    }, 
                    "indices" : 3, 
                    "material" : 1
                }, 
                {
                    "attributes" : {
                        "NORMAL" : 10, 
                        "POSITION" : 9, 
                        "TANGENT" : 11, 
                        "TEXCOORD_0" : 12
                    }, 
                    "indices" : 8, 
                    "material" : 3
                }, 
                {
                    "attributes" : {
                        "NORMAL" : 15, 
                        "POSITION" : 14, 
                        "TANGENT" : 16, 
                        "TEXCOORD_0" : 17
                    }, 
                    "indices" : 13, 
                    "material" : 2
                }, 
                {
                    "attributes" : {
                        "NORMAL" : 20, 
                        "POSITION" : 19, 
                        "TANGENT" : 21, 
                        "TEXCOORD_0" : 22
                    }, 
                    "indices" : 18, 
                    "material" : 4
                }
            ]
        }, 
        {
            "name" : "StickMesh", 
            "primitives" : [
                {
                    "attributes" : {
                        "COLOR_0" : 26, 
                        "JOINTS_0" : 27, 
                        "NORMAL" : 25, 
                        "POSITION" : 24, 
                        "WEIGHTS_0" : 28
                    }, 
                    "indices" : 23
                }
            ]
        }
    ], 
    "nodes" : [
        {
            "children" : [
                6, 
                7
            ], 
            "name" : "Armature"
        }, 
        {
            "camera" : 0, 
            "name" : "Correction_Camera", 
            "rotation" : [
                -0.7071067690849304, 
                -0.0, 
                0.0, 
                0.7071067690849304
            ]
        }, 
        {
            "children" : [
                1
            ], 
            "name" : "Camera", 
            "rotation" : [
                0.483536034822464, 
                0.33687159419059753, 
                -0.20870360732078552, 
                0.7804827094078064
            ], 
            "translation" : [
                7.481131553649902, 
                5.34366512298584, 
                6.5076398849487305
            ]
        }, 
        {
            "mesh" : 0, 
            "name" : "Floor"
        }, 
        {
            "name" : "Lamp", 
            "rotation" : [
                0.16907575726509094, 
                0.7558802962303162, 
                -0.27217137813568115, 
                0.570947527885437
            ], 
            "scale" : [
                1.0, 
                1.0, 
                0.9999999403953552
            ], 
            "translation" : [
                4.076245307922363, 
                5.903861999511719, 
                -1.0054539442062378
            ]
        }, 
        {
            "mesh" : 1, 
            "name" : "Player"
        }, 
        {
            "mesh" : 2, 
            "name" : "Stick", 
            "skin" : 0
        }, 
        {
            "children" : [
                8
            ], 
            "name" : "Armature_Bottom"
        }, 
        {
            "name" : "Armature_Top", 
            "translation" : [
                0.0, 
                1.0, 
                0.0
            ]
        }
    ], 
    "samplers" : [
        {}
    ], 
    "scene" : 0, 
    "scenes" : [
        {
            "name" : "Scene", 
            "nodes" : [
                0, 
                3, 
                5, 
                4, 
                2
            ]
        }
    ], 
    "skins" : [
        {
            "inverseBindMatrices" : 29, 
            "joints" : [
                7, 
                8
            ], 
            "skeleton" : 0
        }
    ], 
    "textures" : [
        {
            "sampler" : 0, 
            "source" : 0
        }
    ]
}
