{
    "accessors" : [
        {
            "bufferView" : 0, 
            "componentType" : 5123, 
            "count" : 7020, 
            "max" : [
                4657
            ], 
            "min" : [
                0
            ], 
            "type" : "SCALAR"
        }, 
        {
            "bufferView" : 1, 
            "componentType" : 5126, 
            "count" : 4658, 
            "max" : [
                0.3301422894001007, 
                3.7543537616729736, 
                1.9550775289535522
            ], 
            "min" : [
                -0.5202763676643372, 
                0.006560564041137695, 
                -1.9550775289535522
            ], 
            "type" : "VEC3"
        }, 
        {
            "bufferView" : 2, 
            "componentType" : 5126, 
            "count" : 4658, 
            "max" : [
                0.9999240636825562, 
                0.9993941783905029, 
                0.9991879463195801
            ], 
            "min" : [
                -1.0, 
                -0.9999999403953552, 
                -0.9991878867149353
            ], 
            "type" : "VEC3"
        }, 
        {
            "bufferView" : 3, 
            "componentType" : 5126, 
            "count" : 4658, 
            "max" : [
                1.0, 
                0.0, 
                -0.0, 
                1.0
            ], 
            "min" : [
                1.0, 
                0.0, 
                -0.0, 
                1.0
            ], 
            "type" : "VEC4"
        }, 
        {
            "bufferView" : 4, 
            "componentType" : 5126, 
            "count" : 4658, 
            "max" : [
                0.0, 
                1.0
            ], 
            "min" : [
                0.0, 
                1.0
            ], 
            "type" : "VEC2"
        }
    ], 
    "asset" : {
        "generator" : "Khronos Blender glTF 2.0 exporter", 
        "version" : "2.0"
    }, 
    "bufferViews" : [
        {
            "buffer" : 0, 
            "byteLength" : 14040, 
            "byteOffset" : 0, 
            "target" : 34963
        }, 
        {
            "buffer" : 0, 
            "byteLength" : 55896, 
            "byteOffset" : 14040, 
            "target" : 34962
        }, 
        {
            "buffer" : 0, 
            "byteLength" : 55896, 
            "byteOffset" : 69936, 
            "target" : 34962
        }, 
        {
            "buffer" : 0, 
            "byteLength" : 74528, 
            "byteOffset" : 125832, 
            "target" : 34962
        }, 
        {
            "buffer" : 0, 
            "byteLength" : 37264, 
            "byteOffset" : 200360, 
            "target" : 34962
        }
    ], 
    "buffers" : [
        {
            "byteLength" : 237624, 
            "uri" : "player.bin"
        }
    ], 
    "cameras" : [
        {
            "name" : "Camera", 
            "perspective" : {
                "aspectRatio" : 1.7777777777777777, 
                "yfov" : 0.5033799372418416, 
                "zfar" : 100.0, 
                "znear" : 0.10000000149011612
            }, 
            "type" : "perspective"
        }
    ], 
    "images" : [
        {
            "uri" : "player_color_1024.png"
        }
    ], 
    "materials" : [
        {
            "name" : "PlayerBase", 
            "pbrMetallicRoughness" : {
                "baseColorTexture" : {
                    "index" : 0
                }
            }
        }, 
        {
            "name" : "PlayerXPlus", 
            "pbrMetallicRoughness" : {
                "baseColorFactor" : [
                    1.0, 
                    0.006453229114413261, 
                    0.0, 
                    1.0
                ]
            }
        }, 
        {
            "name" : "PlayerYPlus", 
            "pbrMetallicRoughness" : {
                "baseColorFactor" : [
                    0.03089088201522827, 
                    1.0, 
                    0.0, 
                    1.0
                ]
            }
        }, 
        {
            "name" : "PlayerZPlus", 
            "pbrMetallicRoughness" : {
                "baseColorFactor" : [
                    0.0, 
                    0.018057778477668762, 
                    1.0, 
                    1.0
                ]
            }
        }
    ], 
    "meshes" : [
        {
            "name" : "PlayerMesh", 
            "primitives" : [
                {
                    "attributes" : {
                        "NORMAL" : 2, 
                        "POSITION" : 1, 
                        "TANGENT" : 3, 
                        "TEXCOORD_0" : 4
                    }, 
                    "indices" : 0, 
                    "material" : 0
                }
            ]
        }
    ], 
    "nodes" : [
        {
            "camera" : 0, 
            "name" : "Correction_Camera", 
            "rotation" : [
                -0.7071067690849304, 
                -0.0, 
                0.0, 
                0.7071067690849304
            ]
        }, 
        {
            "children" : [
                0
            ], 
            "name" : "Camera", 
            "rotation" : [
                0.483536034822464, 
                0.33687159419059753, 
                -0.20870360732078552, 
                0.7804827094078064
            ], 
            "translation" : [
                7.481131553649902, 
                5.34366512298584, 
                6.5076398849487305
            ]
        }, 
        {
            "name" : "Lamp", 
            "rotation" : [
                0.16907575726509094, 
                0.7558802962303162, 
                -0.27217137813568115, 
                0.570947527885437
            ], 
            "scale" : [
                1.0, 
                1.0, 
                0.9999999403953552
            ], 
            "translation" : [
                4.076245307922363, 
                5.903861999511719, 
                -1.0054539442062378
            ]
        }, 
        {
            "mesh" : 0, 
            "name" : "Player"
        }
    ], 
    "samplers" : [
        {}
    ], 
    "scene" : 0, 
    "scenes" : [
        {
            "name" : "Scene", 
            "nodes" : [
                3, 
                2, 
                1
            ]
        }
    ], 
    "textures" : [
        {
            "sampler" : 0, 
            "source" : 0
        }
    ]
}
